<svg width="62" height="24" viewBox="0 0 62 24" fill="none" xmlns="http://www.w3.org/2000/svg">
<path d="M0.292893 15.2929C-0.0976311 15.6834 -0.0976311 16.3166 0.292893 16.7071L6.65685 23.0711C7.04738 23.4616 7.68054 23.4616 8.07107 23.0711C8.46159 22.6805 8.46159 22.0474 8.07107 21.6569L2.41421 16L8.07107 10.3431C8.46159 9.95262 8.46159 9.31946 8.07107 8.92893C7.68054 8.53841 7.04738 8.53841 6.65685 8.92893L0.292893 15.2929ZM61.7071 8.70711C62.0976 8.31658 62.0976 7.68342 61.7071 7.29289L55.3431 0.928932C54.9526 0.538408 54.3195 0.538408 53.9289 0.928932C53.5384 1.31946 53.5384 1.95262 53.9289 2.34315L59.5858 8L53.9289 13.6569C53.5384 14.0474 53.5384 14.6805 53.9289 15.0711C54.3195 15.4616 54.9526 15.4616 55.3431 15.0711L61.7071 8.70711ZM41 15H1V17H41V15ZM21 9H61V7H21V9Z" fill="#244484"/>
</svg>
