<svg width="22" height="20" viewBox="0 0 22 20" fill="none" xmlns="http://www.w3.org/2000/svg">
<path d="M21.1278 17.2913L17.1051 13.3971C16.9235 13.2214 16.6774 13.1237 16.4192 13.1237H15.7615C16.8751 11.7449 17.5368 10.0107 17.5368 8.12421C17.5368 3.63636 13.7804 0 9.14432 0C4.50828 0 0.751831 3.63636 0.751831 8.12421C0.751831 12.612 4.50828 16.2484 9.14432 16.2484C11.0932 16.2484 12.8846 15.6079 14.3089 14.5298V15.1665C14.3089 15.4165 14.4098 15.6547 14.5914 15.8305L18.6141 19.7246C18.9934 20.0918 19.6067 20.0918 19.9819 19.7246L21.1238 18.6193C21.5031 18.2521 21.5031 17.6584 21.1278 17.2913ZM9.14432 13.1237C6.29168 13.1237 3.97971 10.8896 3.97971 8.12421C3.97971 5.36276 6.28765 3.12469 9.14432 3.12469C11.997 3.12469 14.3089 5.35885 14.3089 8.12421C14.3089 10.8857 12.001 13.1237 9.14432 13.1237Z" fill="#1A3263"/>
<path d="M21.1278 17.2913L17.1051 13.3971C16.9235 13.2214 16.6774 13.1237 16.4192 13.1237H15.7615C16.8751 11.7449 17.5368 10.0107 17.5368 8.12421C17.5368 3.63636 13.7804 0 9.14432 0C4.50828 0 0.751831 3.63636 0.751831 8.12421C0.751831 12.612 4.50828 16.2484 9.14432 16.2484C11.0932 16.2484 12.8846 15.6079 14.3089 14.5298V15.1665C14.3089 15.4165 14.4098 15.6547 14.5914 15.8305L18.6141 19.7246C18.9934 20.0918 19.6067 20.0918 19.9819 19.7246L21.1238 18.6193C21.5031 18.2521 21.5031 17.6584 21.1278 17.2913ZM9.14432 13.1237C6.29168 13.1237 3.97971 10.8896 3.97971 8.12421C3.97971 5.36276 6.28765 3.12469 9.14432 3.12469C11.997 3.12469 14.3089 5.35885 14.3089 8.12421C14.3089 10.8857 12.001 13.1237 9.14432 13.1237Z" fill="black" fill-opacity="0.2"/>
</svg>
